# xmcd CD database file
#
# Track frame offsets:
#	150
#	7085
#	26320
#	41564
#	56710
#	67311
#	84123
#	103443
#	107270
#	126525
#	143734
#	161479
#
# Disc length: 2343 seconds
#
# Revision: 0
# Processed by: cddbd v1.5.1PL2 Copyright (c) Steve Scherf et al.
# Submitted via: CDex 1.50beta8
#
DISCID=a209250c
DTITLE=ACID - SPIRITUAL CIRCUS COMPLETE
DYEAR=2006
DGENRE=Rock
TTITLE0=SPIRITUAL CIRCUS
TTITLE1=15才-fifteen-
TTITLE2=Conjuration
TTITLE3=龍宮城
TTITLE4=Growing up
TTITLE5=Still in the dream?
TTITLE6=Big Bang
TTITLE7=Departure(interlude)
TTITLE8=Brand New World
TTITLE9=愛の火
TTITLE10=青い想い(Album Ver.)
TTITLE11=Eat'em all
EXTD=YEAR: 2006
EXTT0=
EXTT1=
EXTT2=
EXTT3=
EXTT4=
EXTT5=
EXTT6=
EXTT7=
EXTT8=
EXTT9=
EXTT10=
EXTT11=
PLAYORDER=
